<svg width="10" height="15" viewBox="0 0 10 15" fill="none" xmlns="http://www.w3.org/2000/svg">
<path opacity="0.3" fill-rule="evenodd" clip-rule="evenodd" d="M2 1.5C2 0.671573 2.67157 0 3.5 0H8.5C9.32843 0 10 0.671573 10 1.5C10 2.32843 9.32843 3 8.5 3H3.5C2.67157 3 2 2.32843 2 1.5ZM2 13.5C2 12.6716 2.67157 12 3.5 12H8.5C9.32843 12 10 12.6716 10 13.5C10 14.3284 9.32843 15 8.5 15H3.5C2.67157 15 2 14.3284 2 13.5ZM1.5 6C0.671573 6 0 6.67157 0 7.5C0 8.32843 0.671573 9 1.5 9H5.5C6.32843 9 7 8.32843 7 7.5C7 6.67157 6.32843 6 5.5 6H1.5Z" fill="#99EFD0"/>
</svg>
