<svg width="10" height="10" viewBox="0 0 10 10" fill="none" xmlns="http://www.w3.org/2000/svg">
<path fill-rule="evenodd" clip-rule="evenodd" d="M5 10C7.76142 10 10 7.76142 10 5C10 2.23858 7.76142 0 5 0C2.23858 0 0 2.23858 0 5C0 7.76142 2.23858 10 5 10ZM1 5.25C1 4.83579 1.33579 4.5 1.75 4.5H2.25C2.66421 4.5 3 4.83579 3 5.25C3 5.66421 2.66421 6 2.25 6H1.75C1.33579 6 1 5.66421 1 5.25ZM8 3C7.44772 3 7 3.44772 7 4V6C7 6.55228 7.44772 7 8 7C8.55229 7 9 6.55228 9 6V4C9 3.44772 8.55229 3 8 3Z" fill="#99EFD0"/>
</svg>
