<svg width="10" height="10" viewBox="0 0 10 10" fill="none" xmlns="http://www.w3.org/2000/svg">
<path fill-rule="evenodd" clip-rule="evenodd" d="M5 10C7.76142 10 10 7.76142 10 5C10 2.23858 7.76142 0 5 0C2.23858 0 0 2.23858 0 5C0 7.76142 2.23858 10 5 10ZM7 5.25C7 4.83579 7.33579 4.5 7.75 4.5H8.25C8.66421 4.5 9 4.83579 9 5.25C9 5.66421 8.66421 6 8.25 6H7.75C7.33579 6 7 5.66421 7 5.25ZM2 3C1.44772 3 1 3.44772 1 4V6C1 6.55228 1.44772 7 2 7C2.55228 7 3 6.55228 3 6V4C3 3.44772 2.55228 3 2 3Z" fill="#99EFD0"/>
</svg>
